<?xml version="1.0" standalone="no"?>
<!DOCTYPE svg PUBLIC "-//W3C//DTD SVG 20010904//EN"
 "http://www.w3.org/TR/2001/REC-SVG-20010904/DTD/svg10.dtd">
<svg version="1.0" xmlns="http://www.w3.org/2000/svg"
 width="500.000000pt" height="132.000000pt" viewBox="0 0 500.000000 132.000000"
 preserveAspectRatio="xMidYMid meet">

<g transform="translate(0.000000,132.000000) scale(0.100000,-0.100000)"
fill="#000000" stroke="none">
<path d="M825 1255 c-34 -33 -34 -87 0 -120 19 -20 34 -25 75 -25 65 0 100 30
100 85 0 55 -35 85 -100 85 -41 0 -56 -5 -75 -25z"/>
<path d="M24 1216 c-3 -7 -4 -42 -2 -77 l3 -64 117 -3 118 -3 0 -359 0 -360
95 0 95 0 0 360 0 360 120 0 120 0 0 80 0 80 -330 0 c-269 0 -332 -3 -336 -14z"/>
<path d="M2752 798 c-83 -238 -152 -437 -152 -441 0 -4 44 -7 98 -7 l99 0 30
102 30 103 161 3 161 2 32 -105 32 -105 99 0 c54 0 98 3 97 8 0 4 -69 201
-152 437 l-152 430 -115 3 -115 3 -153 -433z m327 99 c28 -92 51 -172 51 -177
0 -6 -44 -10 -111 -10 -111 0 -111 0 -106 23 29 111 103 344 108 339 4 -4 30
-82 58 -175z"/>
<path d="M1461 1017 c-18 -6 -49 -25 -68 -44 -20 -18 -39 -30 -44 -27 -4 2
-11 20 -15 39 l-6 35 -74 0 -74 0 0 -335 0 -335 94 0 95 0 3 218 c3 234 8 257
59 294 33 25 97 33 129 16 53 -28 60 -62 60 -305 l0 -223 90 0 90 0 0 254 c0
165 -4 265 -12 287 -31 93 -107 139 -223 138 -38 -1 -85 -6 -104 -12z"/>
<path d="M3810 1011 c-19 -11 -46 -31 -59 -45 -14 -14 -28 -26 -32 -26 -5 0
-13 18 -19 40 l-11 40 -74 0 -75 0 0 -485 0 -485 91 0 90 0 -3 185 c-2 102 0
185 3 185 3 0 14 -10 25 -21 46 -52 149 -73 238 -48 53 15 119 79 146 141 27
63 38 166 28 271 -12 127 -66 216 -155 254 -47 19 -151 16 -193 -6z m112 -148
c50 -45 70 -152 48 -257 -17 -82 -51 -116 -117 -116 -96 0 -127 48 -127 200
-1 121 14 162 67 186 40 18 102 12 129 -13z"/>
<path d="M4590 1011 c-19 -11 -46 -31 -59 -45 -14 -14 -28 -26 -32 -26 -5 0
-13 18 -19 40 l-11 40 -74 0 -75 0 0 -485 0 -485 91 0 90 0 -3 185 c-2 102 0
185 3 185 3 0 14 -10 25 -21 46 -52 149 -73 238 -48 53 15 119 79 146 141 27
63 38 166 28 271 -12 127 -66 216 -155 254 -47 19 -151 16 -193 -6z m112 -148
c50 -45 70 -152 48 -257 -17 -82 -51 -116 -117 -116 -96 0 -127 48 -127 200
-1 121 14 162 67 186 40 18 102 12 129 -13z"/>
<path d="M810 685 l0 -335 90 0 90 0 0 335 0 335 -90 0 -90 0 0 -335z"/>
<path d="M1904 1003 c4 -10 64 -161 133 -336 l127 -317 -27 -55 c-34 -70 -65
-90 -139 -90 l-58 1 0 -73 0 -73 43 -1 c167 -4 253 44 312 175 23 50 295 771
295 782 0 2 -43 3 -97 2 l-96 -3 -59 -175 c-33 -96 -67 -206 -78 -245 -12 -45
-19 -60 -19 -42 -1 16 -33 128 -73 248 l-72 219 -99 0 c-90 0 -99 -2 -93 -17z"/>
</g>
</svg>
